<?xml version="1.0" encoding="UTF-8"?>
<!-- Uploaded to: SVG Repo, www.svgrepo.com, Generator: SVG Repo Mixer Tools -->
<svg width="16" height="16" viewBox="0 0 16 16" fill="none" xmlns="http://www.w3.org/2000/svg">
    <g fill="#2955CB">
        <path d="M15.7709 8.87562C15.2406 9.44852 14.4995 9.70591 12.5889 9.955C12.0731 10.0297 11.4846 10.146 11.2957 10.2207C10.315 10.586 9.51581 11.4495 9.1235 12.5372L9 12.8693L9.28333 12.5621C9.75555 12.039 10.8526 11.5907 11.6662 11.5824C12.1748 11.5824 13.3154 11.3499 13.9256 11.134C14.9354 10.7687 15.5675 10.0961 15.9743 8.94205C16.0542 8.70957 16.1196 8.5103 16.1124 8.5103C16.1051 8.5103 15.9525 8.67635 15.7709 8.87562Z"/>
        <path d="M14.6085 11.5824C14.2089 11.9394 13.0684 12.2383 11.4483 12.4126C10.4675 12.5206 10.0026 12.67 9.61752 12.9855C9.33418 13.218 9.01453 13.8075 9.01453 14.0981C9.01453 14.2725 9.04359 14.2725 9.25427 14.123C9.54487 13.9155 10.1624 13.8241 11.3248 13.8241C13.0102 13.8241 13.7731 13.5418 14.3179 12.7032C14.5577 12.3462 14.8773 11.5242 14.8119 11.4495C14.7974 11.4412 14.7102 11.4993 14.6085 11.5824Z"/>
        <path d="M12.7923 14.4884C12.6906 14.5216 12.0295 14.5548 11.3175 14.5631C9.96623 14.5714 9.46495 14.6544 9.2688 14.9035C9.15983 15.0364 9.16709 15.0696 9.34872 15.3103C10.0825 16.315 11.3829 16.1157 12.6543 14.8122C12.8722 14.5963 13.032 14.4136 13.0102 14.4136C12.9884 14.4219 12.894 14.4552 12.7923 14.4884Z"/>
    </g>
    <path d="M7.9201 0.748128C8.8113 5.20723 10.5936 6.99936 15.0975 7.89544C10.5936 8.79149 8.81128 10.5836 7.92017 15.0427C7.02898 10.5836 5.24666 8.79149 0.742729 7.89542C5.24664 6.99936 7.02896 5.20723 7.9201 0.748128Z" fill="url(#paint0_linear_14_79)"/>
    <path d="M12.8155 4.67592C13.7529 4.67592 14.5128 3.91182 14.5128 2.96927C14.5128 2.02671 13.7529 1.26262 12.8155 1.26262C11.8781 1.26262 11.1181 2.02671 11.1181 2.96927C11.1181 3.91182 11.8781 4.67592 12.8155 4.67592Z" fill="url(#paint1_linear_14_79)"/>
    <linearGradient id="paint0_linear_14_79" x1="7.92014" y1="0.748128" x2="7.92014" y2="15.0427" gradientUnits="userSpaceOnUse">
        <stop stop-color="#3573F0"/>
        <stop offset="1" stop-color="#EA33EC"/>
    </linearGradient>
    <linearGradient id="paint1_linear_14_79" x1="7.92015" y1="0.748126" x2="7.92015" y2="15.0427" gradientUnits="userSpaceOnUse">
        <stop stop-color="#3573F0"/>
        <stop offset="1" stop-color="#EA33EC"/>
    </linearGradient>
</svg>